<?xml version="1.0" encoding="iso-8859-1"?>
<!-- Generator: Adobe Illustrator 19.0.0, SVG Export Plug-In . SVG Version: 6.00 Build 0)  -->
<svg version="1.1" id="Layer_1" xmlns="http://www.w3.org/2000/svg" xmlns:xlink="http://www.w3.org/1999/xlink" x="0px" y="0px"
	 viewBox="0 0 505 505" style="enable-background:new 0 0 505 505;" xml:space="preserve">
<circle style="fill:#324A5E;" cx="252.5" cy="252.5" r="252.5"/>
<circle style="fill:#84DBFF;" cx="252.5" cy="252.5" r="174.5"/>
<g>
	<path style="fill:#FF7058;" d="M112.3,148.6c-0.9,1.3-1.8,2.6-2.8,3.9c0.9-0.1,1.8-0.1,2.7-0.2C112.8,151,112.7,149.8,112.3,148.6z
		"/>
	<path style="fill:#FF7058;" d="M128,130.2c-0.8,0.8-1.6,1.7-2.4,2.5c1-0.3,1.8-0.7,2.6-1.5C128.2,130.9,128.2,130.6,128,130.2z"/>
	<path style="fill:#FF7058;" d="M423.1,215.7c0-0.1-0.1-0.2-0.1-0.3l-0.1,0.1C423,215.6,423,215.7,423.1,215.7z"/>
</g>
<g>
	<path style="fill:#EDF2F2;" d="M423.1,215.7c0.7,3.2,1.3,6.5,1.8,9.8C426,222.1,425.6,217.9,423.1,215.7z"/>
	<path style="fill:#EDF2F2;" d="M165.2,130.4c-0.3-0.2-0.5-0.5-0.7-0.7c0,0.6,0,1.2,0,1.8L165.2,130.4z"/>
</g>
<path style="fill:#FFFFFF;" d="M94.9,222.5c2.1,2.9,5.5,4.8,6.5,8.2c0.7,2.5-0.1,5.3,0.9,7.7c2,4.8,9.1,4.7,12.7,8.5
	c1.6,1.7,2.3,4,3.4,6c4.9,8.6,16.5,9.9,26.4,10.2c-1.2,4.4,1.8,9.5,6.3,10.6c-0.1,4.1-5.3,5.9-7.6,9.4c-2.2,3.3-1.2,7.9,0.9,11.2
	c2.1,3.4,5.1,6.1,7.4,9.3c8.3,11.5,6.1,27.2,3.2,41.1c-2.6,12.9-5.2,27.3,1.7,38.5c4.4-2,5.4-7.8,5.2-12.6c-0.2-4.8-0.8-10.2,2.2-14
	c2.4-3,6.4-4.2,9.5-6.5s4.9-7.5,1.8-9.8c3.5,1.5,7.1-2.1,8.5-5.7c1.4-3.5,2.3-7.7,5.5-9.7c1.8-1.1,4.1-1.3,5.8-2.5
	c4.5-3.3,2-10.6,4.6-15.6c2-3.9,6.8-5.8,8.2-9.9c1.7-5.1-3.1-10.1-8.1-12.3c-4.9-2.1-10.7-2.9-14.6-6.6c-3.1-2.8-4.7-7-7.9-9.6
	c-6.7-5.4-16.9-2-24.9-5.3c1.5,1.3,0.1,4.1-1.9,4.2s-3.7-1.5-4.5-3.3c-0.9-1.8-1.2-3.8-2.2-5.6c-2.7-5-9-6.4-14.3-8.4
	s-10.9-7.2-8.8-12.5c8.6-1.3,17.2-2.7,25.8-4c1.5-0.2,2.9-0.5,4.2-1.2c6.5-3.5,3.3-14.2,7.9-20c3.3-4.2,10.3-5,12.4-9.9
	c1-2.3,0.7-5,1.3-7.4c0.6-2.5,2.9-5,5.3-4.1c1.6-4.1-2.2-8.4-6.1-10.5c-3.9-2.1-8.5-3.8-10.5-7.8c-0.7-1.5-1-3.3-2.2-4.5
	s-3-1.6-4.7-1.9c-3.3-0.6-6.9-1.1-10,0.1c-3.2,1.3-5.5,5.1-4,8.1c1.5,2.9,5.5,3.6,7.3,6.3s0.5,6.7-2.3,8.4c-2.7,1.7-6.4,1.4-9.3-0.1
	c2.2-6.8-9.5-12.1-7.6-19c0.7-2.5,3.1-4.1,5-5.8c1.9-1.8,3.6-4.5,2.5-6.8c-1.7-3.4-7.1-2.2-10.2-4.5c-3.6-2.6-2.2-8.7,1.5-11.2
	c3.7-2.4,8.5-2.2,12.9-1.9c-1-5-1.3-11.5,3.3-13.6c1.6-0.7,3.4-0.7,5.2-0.6c4.9,0.2,9.9,0.3,14.8,0.5c1-2.5,5.6-4.1,6.1-6.8
	c1-5.6-11.2-6.6-15.5-5.6c-1.9,0.4-3.6,1.1-5.4,1.7c-2.2,0.8-4.5,1.3-6.8,1.8c-4.9,4-9.5,8.2-13.9,12.7c0.1,0.3,0.2,0.7,0.2,1
	c-0.7,0.8-1.6,1.2-2.6,1.5c-4.7,5-9.2,10.3-13.3,15.8c0.3,1.2,0.5,2.4,0,3.7c-0.9,0.1-1.8,0.1-2.7,0.2
	c-9.4,13.4-16.9,28.1-22.3,43.9c1.5,6.1,3,12.3,4.5,18.4C92.5,217.4,93.2,220.3,94.9,222.5z"/>
<path style="fill:#EDF2F2;" d="M164.5,129.7c0-1.1,0-2.1,0-3.2c-0.3,0-0.6,0-0.9,0C163.2,127.4,163.3,128.4,164.5,129.7z"/>
<g>
	<path style="fill:#FFFFFF;" d="M175.2,136.3c4.2,3.2,5.7,8.8,7.2,13.8c2.5,8.4,5.8,16.5,9.9,24.2c1.2-0.1,2.4-0.2,3.5-0.3
		c2.4-3,0.9-7.8,3-11c0.6-0.9,1.5-1.6,2.4-2.3c5-4.1,10.7-8.3,17.1-8.3c1.1,0,2.2,0.1,3.2-0.2c2.6-0.8,3.8-3.9,3.9-6.6
		c0.1-2.7-0.6-5.5,0.1-8.2c0.9-3.4,3.8-5.9,5.5-9s1.2-8.1-2.2-8.9c-1.3-0.3-2.6,0.1-3.9-0.1c-3.1-0.4-4.8-3.8-7.4-5.5
		c-5.7-3.9-13.1,0.5-19.7,2.2c-3.2,0.8-6.5,0.9-9.8,1.1c-4.8,0.2-9.6,0.4-14.4,0.6l-8.3,12.8c0.5,0.5,1.1,1,1.9,1.5
		C169.6,133.6,172.7,134.4,175.2,136.3z"/>
	<path style="fill:#FFFFFF;" d="M423.1,215.7c-0.1-0.1-0.1-0.1-0.2-0.2l0.1-0.1c-6.4-29.5-20.3-56.1-39.5-77.9c0,0,0-0.1,0.1-0.1
		c-1-1.1-2-2.2-3-3.3c-0.9-1-1.9-2.1-2.9-3.1c-2.6-2.7-5.3-5.3-8.1-7.8c-0.2-0.2-0.4-0.4-0.7-0.6c0,0,0,0,0,0.1
		c-14-12.6-30.1-23-47.6-30.5c-5.2,2-9.9,5.3-11.5,10.5s-0.2,11.6-4,15.5s-10.3,2.6-15.3,4.7c-4.3,1.8-6.9,6.6-6.8,11.2
		c-4.7,3.7-8.9,8.3-14.1,10.6c-1.8,0.8-3.7,1.4-5.1,3c-2.5,3-2,7.9-1.1,12c0.6,3.2,1.4,6.6,3.3,8.9c1.9,2.4,5.4,3.2,7.4,0.9
		c2.4-2.8,1.1-7.5,1.3-11.5c0.3-6.2,5.2-11.6,10.4-11.4c-1.7,3.1,1,6.9,3.6,8.9s5.7,4.8,5,8.4c-3.7,0.7-7.3,1.4-11,2.1
		c2.6,3.4,0.2,9.3-3.4,11.1s-7.6,1-11.5,1.1s-8.3,1.6-9.8,5.9c-0.7,2-0.6,4.3-1.3,6.3c-2.2,5.6-10.4,7-9.9,13.1
		c0.5,5.4,7.2,5.6,11.3,3.2c4.1-2.4,9.1-5.8,12.7-2.5c1.7,1.6,2.6,4.4,4.6,5.5c2.1,1.1,4.9,0.1,6.5,1.9c1,1.1,1.2,2.8,1.9,4.2
		c1.3,2.9,4.3,4.1,7,4.8c2.7,0.8,5.7,1.5,7.5,4.1s1.1,7.5-1.6,8c-1.5,0.2-2.8-0.9-4.3-1.3c-5.6-1.8-11.2,6.3-16.6,3.8
		c-3.5-1.6-4.7-6.7-6.9-10.4c-3.1-5.3-9.1-7.9-14.3-6.3c-5.1,1.6-8.9,6.5-12.4,11.2c-5.3,7.1-10.7,14.5-13,23.6
		c-2.2,8.7-1.2,18.2,1.8,26.6c1.2,3.2,2.8,6.5,5.5,7.9c6.4,3.3,13.2-6,20.1-4.4c7.1,1.6,8.8,12.6,8.9,21.2c0,1.4,0,2.8,0,4.3
		c0.2,19,0.8,39.4,10.2,54.8c10.6,4.6,23.6-6.7,23.2-20.1c-0.1-3.1-0.7-6.4,0.7-9c0.9-1.6,2.3-2.5,3.4-3.9
		c4.5-6.1-1.5-15.8,0.5-23.6c2.1-8.3,12.6-11.6,12.9-20.3c0.3-6.1-4.8-12.3-2.3-17.6c2.4,3.4,6.9,4.7,10.2,2.4
		c3.3-2.2,4.6-7.9,2.4-11.6c-8,2.3-16.3-8.8-13.3-18c6.8,2.2,13.6,4.4,20.4,6.6c2,0.6,4.1,1.3,5.8,2.8c3.7,3.2,4.6,9.1,5,14.5
		s0.6,11.2,3.6,15.3c2.9,4.1,9.7,4.4,11.2-0.7c0.6-1.9,0.2-4.1,0.1-6.1c-0.4-7.2,2.6-14.4,7.5-18.6c4.2-1.8,8.8,1.8,11.5,6.2
		c2.7,4.3,4.4,9.5,7.8,13s9.5,4.2,11.8-0.4c2.4-4.9-1.2-10.7-4.6-14.7c5.4-7.3,16.3-8.4,18.8-17.6c2.2-8.3-4.4-17.7-1.2-25.4
		c4.7,2.2,7.9,8.4,7.3,14.3c2.8-0.1,4.8-2.6,5.7-5.7C424.4,222.2,423.8,219,423.1,215.7z"/>
</g>
<g>
</g>
<g>
</g>
<g>
</g>
<g>
</g>
<g>
</g>
<g>
</g>
<g>
</g>
<g>
</g>
<g>
</g>
<g>
</g>
<g>
</g>
<g>
</g>
<g>
</g>
<g>
</g>
<g>
</g>
</svg>
